<?xml version="1.0" encoding="utf-8"?>

<!DOCTYPE svg PUBLIC "-//W3C//DTD SVG 1.1//EN" "http://www.w3.org/Graphics/SVG/1.1/DTD/svg11.dtd">
<!-- Uploaded to: SVG Repo, www.svgrepo.com, Generator: SVG Repo Mixer Tools -->
<svg height="800px" width="800px" version="1.1" id="_x32_" xmlns="http://www.w3.org/2000/svg" xmlns:xlink="http://www.w3.org/1999/xlink" 
	 viewBox="0 0 512 512"  xml:space="preserve">
<style type="text/css">
	.st0{fill:#08c;}
</style>
<g>
	<path class="st0" d="M363.432,28.258c-94.14-6.275-152.797,48.358-166.302,69.029c-17.782,27.199-31.386,6.276-78.446,13.596
		c-47.061,7.328-75.305,32.43-76.35,80.526c-0.27,12.299,4.502,24.778,12.272,35.114c-19.619,49.555-43.775,120.448-54.3,190.909
		c-2.592,14.55,12.01,10.335,15.639,1.584c4.736-11.362,30.819-98.902,67.382-170.686c9.337,3.348,24.39,7.814,34.645,7.436
		c24.354-0.918,50.914-15.189,65.562-8.913c14.64,6.276,93.33,45.818,106.672,49.15c16.746,4.186,48.808,30.918,48.808,38.228
		c0,7.33,1.098,18.79,1.396,31.845c0.278,11.83,7.733,20.843,20.122,25.768c-1.711,9.381-6.42,30.089-15.936,41.182
		c-12.542,14.64-56.478,18.817-56.478,33.465c0,13.523,33.853,5.645,39.056,4.368c-1.504,0.512-4.718,2.539-1.404,10.272
		c6.284,14.649,43.927-27.19,43.927-27.19l18.754-58.315c11.272-1.206,21.636-5.888,27.272-14.91
		c10.453-16.71,14.496-26.488,23.004-41.821c10.462-18.826,71.118-56.406,73.216-142.245
		C514.042,110.883,457.563,34.533,363.432,28.258z"/>
</g>
</svg>